<?xml version="1.0" standalone="no"?>
<!DOCTYPE svg PUBLIC "-//W3C//DTD SVG 20010904//EN"
  "http://www.w3.org/TR/2001/REC-SVG-20010904/DTD/svg10.dtd">
<svg version="1.0" xmlns="http://www.w3.org/2000/svg"s
     width="554.000000pt" height="554.000000pt" viewBox="0 0 554.000000 554.000000"
     preserveAspectRatio="xMidYMid meet">
  <g transform="translate(0.000000,554.000000) scale(0.100000,-0.100000)"
     fill="#000000" stroke="none">
    <path d="M2877 5074 c-6 -75 -2 -94 19 -94 12 0 14 15 12 77 -4 98 -23 109
             -31 17z"/>
    <path d="M2515 5070 c-9 -15 50 -145 68 -148 24 -5 21 19 -12 93 -28 62 -43
             76 -56 55z"/>
    <path d="M3191 4998 c-29 -62 -31 -78 -7 -78 13 0 66 100 66 125 0 37 -33 11
             -59 -47z"/>
    <path d="M2287 4903 c-4 -3 -7 -10 -7 -14 0 -13 100 -89 116 -89 28 0 13 26
             -40 68 -58 45 -59 45 -69 35z"/>
    <path d="M3435 4871 c-64 -41 -91 -69 -78 -82 10 -10 20 -7 52 15 54 38 77 64
             65 76 -6 6 -20 3 -39 -9z"/>
    <path d="M2634 4801 c-90 -41 -115 -152 -60 -266 37 -76 169 -210 245 -248
             l54 -27 51 28 c70 38 208 175 240 240 49 97 42 196 -17 249 -60 55 -159 53
             -233 -3 l-46 -36 -32 31 c-56 54 -128 66 -202 32z m130 -45 c18 -8 48 -35 66
             -60 18 -25 37 -46 40 -46 4 0 20 19 36 42 55 79 146 97 206 40 37 -34 44 -79
             22 -144 -14 -42 -35 -70 -108 -144 -50 -50 -106 -99 -124 -108 -32 -16 -33
             -16 -86 18 -111 71 -226 221 -226 296 0 34 37 91 70 107 33 17 63 16 104 -1z"/>
    <path d="M1638 4535 c-113 -21 -264 -75 -354 -126 -90 -50 -212 -165 -234
             -219 -7 -19 -15 -37 -16 -39 -2 -2 -23 5 -47 14 -39 15 -49 15 -74 3 -30 -14
             -43 -58 -24 -81 7 -9 -7 -21 -55 -46 -71 -37 -114 -80 -114 -116 0 -30 25 -55
             56 -55 13 0 24 -2 24 -4 0 -2 -11 -29 -25 -61 -58 -129 -75 -324 -41 -454 20
             -74 63 -164 101 -209 25 -30 26 -32 9 -63 -23 -46 -15 -133 16 -181 33 -49 93
             -86 151 -94 43 -6 51 -11 95 -69 26 -35 68 -79 93 -99 56 -42 172 -90 261
             -107 36 -7 66 -14 68 -15 2 -1 -25 -31 -60 -66 -141 -141 -290 -406 -378 -670
             -17 -53 -30 -105 -29 -115 1 -10 -3 -44 -11 -75 -16 -69 -3 -110 44 -139 57
             -35 125 -16 180 48 14 16 29 24 38 21 12 -5 15 -33 17 -150 2 -214 39 -642 63
             -735 21 -83 93 -133 193 -133 104 0 159 42 176 135 6 32 8 79 4 103 -4 24 -3
             147 1 273 l7 229 62 0 63 0 6 -122 c3 -68 9 -206 12 -308 7 -211 19 -256 74
             -285 45 -23 131 -30 184 -15 89 25 119 88 136 290 19 234 39 831 30 915 -5 44
             -9 88 -9 98 -1 13 18 1 67 -43 38 -34 80 -67 93 -74 13 -7 36 -20 51 -30 15
             -10 35 -16 45 -15 10 2 38 -11 62 -29 54 -39 77 -46 133 -38 24 3 77 7 118 8
             65 3 84 8 141 40 36 21 72 44 79 53 33 39 24 5 -25 -97 -62 -133 -107 -259
             -108 -307 -1 -28 6 -40 38 -68 45 -38 152 -92 235 -118 30 -10 61 -22 68 -28
             8 -6 12 -38 12 -91 0 -110 24 -280 47 -339 44 -111 100 -144 226 -134 80 7
             123 29 152 77 18 31 20 56 24 238 l3 202 43 0 43 0 4 -197 c6 -276 22 -308
             166 -320 133 -11 205 34 242 153 22 73 48 251 51 357 1 37 7 71 13 76 6 4 36
             16 66 25 114 37 239 115 266 167 14 28 13 35 -17 122 -31 91 -99 236 -157 334
             l-31 52 52 -40 c143 -108 274 -117 313 -22 12 27 13 42 4 67 -18 51 -59 103
             -117 148 l-55 42 41 34 c23 19 48 47 56 63 20 37 19 94 -1 113 -19 19 -44 21
             -44 4 0 -7 -4 -19 -9 -27 -8 -12 -12 -12 -24 -2 -22 18 -12 39 48 104 115 126
             141 215 131 447 -6 128 -3 186 15 330 24 199 22 424 -4 542 -87 381 -384 640
             -822 716 -307 54 -620 -12 -846 -179 -191 -141 -304 -344 -344 -618 -12 -83
             -15 -170 -13 -377 2 -187 -1 -307 -11 -395 -25 -219 7 -323 140 -451 75 -72
             95 -107 69 -123 -5 -3 -20 6 -33 21 l-23 27 -22 -23 c-42 -45 -24 -134 38
             -182 l30 -24 -111 -93 c-61 -51 -111 -91 -113 -89 -1 1 -22 26 -46 54 -25 27
             -55 63 -68 80 -181 236 -445 496 -580 574 -34 19 -62 37 -62 40 0 3 38 18 85
             34 154 52 276 149 333 263 20 41 34 55 60 64 129 43 187 223 101 315 l-20 22
             20 40 c28 54 58 171 66 255 4 39 11 65 16 61 23 -14 39 19 39 80 0 197 -139
             454 -315 585 -125 93 -262 149 -430 176 -82 13 -119 14 -219 5 -212 -18 -365
             -64 -513 -152 -66 -39 -167 -134 -175 -164 l-5 -21 51 19 c65 25 181 30 181 8
             0 -12 -18 -16 -80 -21 -77 -5 -135 -23 -135 -41 0 -4 5 -8 10 -8 6 0 10 -7 10
             -15 0 -18 -1 -18 -34 -5 -21 7 -26 6 -26 -5 0 -20 -17 -19 -28 1 -8 14 -17 13
             -78 -13 -38 -16 -98 -48 -133 -71 -35 -23 -67 -40 -70 -37 -11 11 67 75 138
             113 l73 40 -28 13 c-15 8 -29 20 -32 27 -6 19 34 15 79 -9 23 -11 42 -19 43
             -17 1 2 15 29 30 60 95 198 468 366 767 345 93 -7 115 1 85 31 -22 22 -194 26
             -298 7z m785 -306 c112 -84 206 -215 262 -363 42 -111 25 -118 -22 -9 -50 114
             -136 236 -171 241 -14 2 -34 20 -50 45 -15 22 -49 63 -77 89 -68 67 -32 65 58
             -3z m1722 11 c432 -112 669 -381 716 -814 12 -104 -1 -315 -23 -406 -7 -27
             -11 -127 -10 -252 1 -114 -3 -231 -8 -259 -14 -73 -47 -134 -106 -198 -28 -31
             -56 -66 -62 -78 -30 -57 4 -131 54 -119 17 5 24 2 24 -8 0 -17 -66 -76 -85
             -76 -8 0 -73 54 -144 121 -191 179 -256 224 -401 275 l-64 22 44 12 c225 58
             349 135 440 274 36 56 47 66 79 72 146 27 228 166 172 290 -27 60 -74 89 -138
             88 l-52 -2 -22 64 c-23 64 -45 88 -33 37 10 -47 36 -127 50 -155 8 -15 10 -29
             6 -32 -5 -3 -40 13 -79 34 -121 67 -201 176 -254 346 -19 60 -23 66 -29 44
             -25 -90 -100 -159 -204 -186 -79 -21 -176 -17 -176 7 0 5 18 27 40 50 40 42
             80 115 98 182 15 54 1 46 -33 -21 -61 -118 -170 -193 -307 -212 -75 -10 -170
             -2 -189 17 -7 7 5 31 34 74 35 51 107 195 107 215 0 17 -19 -4 -40 -43 -58
             -111 -176 -227 -256 -253 -37 -13 -119 -6 -129 10 -3 5 6 53 20 106 15 52 25
             98 22 100 -10 10 -81 -126 -107 -206 -35 -103 -56 -313 -47 -468 7 -114 29
             -178 87 -251 31 -38 105 -94 167 -125 43 -21 187 -62 250 -71 l53 -7 -94 -47
             c-114 -57 -219 -141 -295 -235 -58 -73 -120 -136 -132 -136 -14 0 -79 67 -79
             82 0 10 8 13 29 10 22 -3 36 2 55 21 50 50 31 103 -68 190 -128 113 -153 216
             -121 504 14 135 15 184 6 338 -7 124 -7 209 0 270 47 421 264 695 634 800 125
             36 201 44 350 40 105 -3 153 -10 250 -35z m-1835 -85 c16 -19 3 -40 -16 -24
             -15 13 -19 39 -5 39 5 0 14 -7 21 -15z m100 -20 c0 -20 -26 -19 -34 1 -11 28
             -7 35 14 24 11 -6 20 -17 20 -25z m-1021 -194 c14 -9 9 -41 -7 -41 -15 0 -34
             28 -27 40 8 12 16 13 34 1z m-509 -88 c0 -21 -56 -133 -65 -130 -19 7 -15 32
             15 85 27 46 50 67 50 45z m30 -117 c0 -15 -18 -31 -26 -23 -7 7 7 37 17 37 5
             0 9 -6 9 -14z m74 6 c2 -4 1 -14 -4 -22 -7 -11 -12 -12 -21 -3 -6 6 -8 16 -5
             22 8 13 23 14 30 3z m204 -171 c70 -65 227 -143 357 -177 117 -30 270 -43 303
             -25 27 15 28 46 2 68 -34 29 -23 32 53 13 137 -35 292 -45 370 -23 34 9 19 49
             -39 102 -30 28 -53 51 -50 51 19 0 132 -66 165 -95 144 -130 185 -465 79 -643
             -58 -96 -171 -172 -344 -230 -132 -44 -229 -56 -423 -49 -182 6 -264 23 -370
             77 -60 30 -149 117 -178 174 -25 51 -32 57 -52 44 -42 -26 -134 20 -166 83
             -22 42 -19 111 6 143 11 14 24 26 29 26 5 0 16 -25 25 -56 20 -71 42 -104 66
             -104 16 0 19 8 19 48 0 26 6 70 14 97 55 200 66 253 76 358 6 64 8 128 4 142
             -3 14 -4 25 -2 25 2 0 27 -22 56 -49z m3061 -220 c50 -137 180 -260 323 -305
             15 -4 17 -13 11 -51 -7 -52 7 -60 33 -20 13 20 16 41 12 95 -5 68 -5 70 18 70
             33 0 82 -46 94 -89 10 -39 0 -93 -23 -121 -40 -51 -135 -92 -161 -71 -10 9
             -22 -4 -51 -53 -54 -92 -88 -131 -167 -186 -70 -49 -186 -94 -308 -120 -95
             -21 -333 -24 -447 -6 -263 40 -416 139 -464 300 -20 65 -21 86 -16 241 4 94 9
             195 13 227 l7 56 41 -15 c47 -16 115 -11 178 14 38 15 42 15 72 -3 47 -28 230
             -32 306 -7 52 17 56 17 72 1 68 -68 293 -31 388 64 19 19 38 36 41 37 4 0 16
             -26 28 -58z m-1630 -170 c43 -61 21 -158 -45 -202 -56 -37 -59 -22 -19 121 8
             30 15 67 15 83 0 36 23 35 49 -2z m-649 -676 c0 -8 -12 -28 -27 -45 -21 -23
             -41 -33 -79 -39 -75 -11 -149 1 -179 29 -42 39 -33 50 43 51 37 1 94 5 127 9
             100 12 115 11 115 -5z m108 -38 c4 -36 -43 -131 -80 -162 l-31 -26 -42 43
             c-22 24 -42 47 -43 51 -1 4 21 20 50 35 44 23 56 35 67 69 14 40 15 40 45 28
             21 -9 32 -21 34 -38z m-386 -67 c24 -11 51 -20 61 -20 26 0 21 -10 -31 -69
             l-48 -55 -43 43 c-42 42 -80 110 -81 143 0 9 14 25 32 36 l32 20 18 -39 c13
             -30 28 -45 60 -59z m510 1 c143 -114 428 -413 428 -448 0 -16 -66 -111 -119
             -171 l-29 -34 -88 89 -89 88 -32 113 c-39 132 -88 246 -103 237 -6 -3 -8 -10
             -6 -14 8 -13 84 -295 100 -371 20 -99 41 -292 34 -312 -8 -19 -132 -53 -253
             -69 -115 -14 -377 -14 -480 0 -44 6 -107 20 -140 30 l-60 18 3 64 c4 82 44
             287 87 453 19 72 32 132 30 135 -25 24 -111 -237 -141 -428 -11 -71 -23 -115
             -31 -118 -22 -9 -104 28 -143 64 l-38 33 34 86 c75 191 192 402 291 524 26 32
             50 59 53 59 3 0 16 -24 29 -55 44 -101 131 -170 169 -132 9 9 12 8 13 -7 0
             -11 2 -33 3 -50 1 -16 3 -92 4 -167 2 -108 5 -138 15 -138 11 0 13 37 9 199
             l-5 200 32 40 c18 23 37 41 43 41 6 0 36 -25 66 -55 56 -55 77 -64 112 -45 28
             15 75 87 96 148 10 28 22 52 26 52 4 0 40 -26 80 -59z m1748 8 c0 -34 -18 -56
             -60 -73 -72 -29 -179 -16 -200 24 -6 10 -10 30 -10 44 l0 26 135 0 c130 0 135
             -1 135 -21z m98 -15 c41 -28 26 -119 -29 -176 -36 -39 -41 -40 -85 -35 -35 4
             -54 13 -83 41 l-37 36 -25 -37 c-17 -26 -37 -43 -66 -53 -38 -13 -46 -12 -77
             3 -47 22 -84 80 -88 136 -3 41 0 47 31 68 l34 23 18 -39 c24 -54 83 -84 164
             -85 100 0 185 55 185 119 0 19 29 19 58 -1z m162 -68 c41 -24 108 -73 148
             -107 63 -55 72 -67 67 -88 -9 -34 -40 -76 -75 -101 l-29 -20 -34 62 c-19 35
             -58 108 -87 163 -28 55 -59 108 -68 118 -25 28 -1 20 78 -27z m-759 -67 c-21
             -36 -58 -103 -81 -149 -23 -47 -44 -87 -46 -89 -7 -8 -52 41 -64 70 -11 26 -9
             32 26 72 58 65 191 173 201 163 2 -2 -14 -32 -36 -67z m778 -181 c1 -13 -102
             -39 -219 -54 -192 -26 -563 -5 -603 35 -8 8 69 176 95 209 8 9 16 0 33 -36 44
             -94 124 -131 207 -94 24 10 49 26 56 35 12 14 17 13 55 -9 73 -41 146 -27 205
             40 17 20 32 41 32 46 0 5 5 21 11 37 11 27 12 25 69 -87 33 -63 59 -118 59
             -122z m247 17 c14 -35 -88 -157 -116 -140 -18 11 -11 26 40 82 28 30 50 59 50
             64 0 15 20 10 26 -6z m-1232 -43 c8 -15 23 -36 35 -46 23 -21 26 -33 12 -55
             -8 -12 -12 -13 -26 -1 -27 23 -66 96 -59 114 9 23 22 20 38 -12z m1409 -105
             c138 -119 168 -160 149 -202 -38 -82 -168 -35 -347 127 l-50 45 36 40 c20 22
             44 54 55 71 10 18 22 31 26 30 4 -2 63 -51 131 -111z m-385 67 c11 -23 10 -26
             -20 -39 -99 -41 -353 -70 -538 -61 -123 5 -328 41 -347 59 -3 4 -1 19 6 33 9
             21 16 25 34 20 193 -57 525 -60 737 -7 104 26 115 25 128 -5z m-1044 -71 l38
             -43 -32 -49 c-62 -98 -232 -211 -315 -211 l-43 0 -5 58 c-6 70 -5 70 173 219
             110 92 126 102 135 87 6 -10 27 -37 49 -61z m1119 -30 c81 -112 256 -432 257
             -468 0 -22 -141 -96 -256 -134 -163 -55 -256 -66 -529 -66 -333 1 -523 36
             -683 127 -49 28 -53 33 -48 58 11 58 129 300 232 476 24 40 26 42 54 31 36
             -13 36 -16 9 -68 -11 -22 -19 -48 -17 -57 3 -11 16 6 36 45 l32 62 37 -11 c21
             -5 39 -11 41 -13 1 -1 -7 -41 -19 -89 -12 -47 -19 -89 -16 -93 11 -11 18 2 32
             64 24 101 31 113 66 113 l31 0 -7 -50 c-9 -63 8 -67 24 -5 11 44 12 45 51 45
             l40 0 0 -65 c0 -36 4 -65 9 -65 4 0 12 28 17 63 l9 62 38 3 37 3 0 -60 c0 -32
             3 -66 6 -75 13 -33 24 -2 24 65 l0 69 50 0 c28 0 53 0 58 1 4 1 16 -23 27 -52
             11 -29 27 -55 34 -57 10 -3 12 0 8 11 -11 29 -28 99 -25 102 2 2 19 6 38 10
             l36 6 28 -88 c16 -48 30 -94 32 -100 2 -7 8 -13 14 -13 13 0 4 53 -21 129 -11
             30 -19 59 -19 66 0 6 20 16 45 22 l45 10 37 -61 c26 -42 39 -56 41 -43 2 10
             -8 38 -23 63 -15 25 -25 47 -23 48 4 4 61 24 70 25 3 1 22 -20 41 -46z m-1648
             -53 c-11 -43 -24 -52 -51 -32 -29 21 -30 32 -3 66 20 26 22 26 41 9 14 -12 17
             -24 13 -43z m-66 -50 c23 -19 23 -21 6 -46 l-17 -26 -25 25 c-21 21 -23 28
             -14 46 14 26 20 26 50 1z m132 -2 c52 -55 75 -128 51 -165 -23 -36 -104 -19
             -151 31 l-22 23 43 66 c24 36 46 66 50 66 4 1 17 -9 29 -21z m-161 -89 c0 -18
             -30 -21 -55 -5 -21 14 -23 19 -13 35 12 19 12 19 40 0 15 -11 28 -25 28 -30z
             m-1452 -67 c-15 -39 -21 -40 -36 -7 -8 17 -9 33 -1 52 10 26 10 26 29 7 18 -17
             18 -23 8 -52z m72 -20 c0 -10 -6 -27 -14 -37 -12 -16 -16 -17 -30 -6 -19 16
             -19 21 -6 56 8 22 13 24 30 15 11 -6 20 -19 20 -28z m94 -20 c-1 -7 -2 -19
             -2 -27 -2 -11 -14 -15 -42 -15 -39 0 -40 1 -34 28 4 15 8 30 10 33 6 11 69 -6
             68 -19z m-194 -26 c6 -8 33 -23 58 -32 26 -10 51 -20 55 -24 15 -13 -44 -50
             -79 -50 -41 0 -64 29 -64 82 0 40 10 48 30 24z m1082 -166 c13 -26 35 -51 51
             -58 28 -14 37 -32 14 -32 -33 0 -89 62 -101 113 -10 43 10 30 36 -23z m-712
             16 c0 -50 -82 -128 -107 -101 -5 4 -2 10 5 12 29 11 71 56 77 83 8 36 25 40
             25 6z m345 -40 c8 -60 5 -86 -10 -89 -6 -1 -11 29 -13 71 -3 84 13 98 23 18z
             m2788 -6 c4 -16 -7 -29 -55 -61 -174 -118 -408 -172 -753 -172 -336 0 -581 56
             -754 171 -8 6 -11 18 -7 30 7 20 10 19 79 -18 86 -46 202 -81 352 -106 85 -14
             162 -18 340 -18 248 1 344 12 504 60 94 29 242 96 261 119 17 20 27 19 33 -5z
             m20 -70 c10 -39 -117 -118 -272 -170 -250 -84 -643 -102 -948 -44 -196 37
             -383 125 -383 181 l0 24 29 -21 c90 -63 269 -119 470 -145 137 -18 395 -20
             536 -5 198 23 412 93 510 168 48 37 51 38 58 12z m-343 -277 c0 -40 -12 -53
             -56 -63 -45 -11 -236 -13 -283 -4 -25 5 -31 11 -29 28 3 19 11 22 103 28 55 4
             129 14 165 21 97 21 100 21 100 -10z m-785 -2 c50 -6 121 -13 158 -17 63 -5
             68 -7 65 -27 -3 -19 -12 -23 -63 -30 -59 -8 -272 -3 -282 7 -3 2 -7 23 -10 47
             -6 40 -5 42 18 36 13 -3 65 -11 114 -16z m770 -148 c-4 -32 -9 -60 -11 -62
             -17 -17 -321 -18 -338 0 -5 5 -9 54 -7 87 1 23 2 23 99 17 53 -3 126 -2 162 3
             111 16 103 20 95 -45z m-547 -8 c-3 -47 -4 -50 -38 -57 -42 -10 -286 -15 -295
             -6 -3 3 -9 30 -12 59 l-5 54 176 0 177 0 -3 -50z m2 -135 c0 -46 -3 -52 -27
             -61 -40 -16 -232 -23 -264 -11 -19 8 -28 20 -33 47 -4 20 -10 43 -12 50 -5 11
             10 13 83 9 48 -3 113 -1 143 4 30 5 67 10 83 11 26 1 27 -1 27 -49z m320 35
             c36 -3 96 -2 133 3 79 10 84 6 67 -57 -9 -36 -15 -42 -53 -52 -44 -12 -227 -8
             -259 6 -14 6 -18 19 -18 62 l0 55 33 -6 c17 -3 61 -8 97 -11z m-1808 -75 c-4
             -46 -21 -57 -99 -66 -53 -5 -172 0 -179 9 0 1 -4 21 -8 44 l-6 42 126 0 c70 0
             129 3 132 6 3 3 13 4 22 3 11 -3 14 -13 12 -38z m-532 -6 c0 -46 -20 -56 -123
             -61 -125 -7 -159 3 -168 47 -4 19 -6 37 -4 40 2 3 69 5 149 5 l146 0 0 -31z"/>
    <path d="M3268 3865 c-6 -14 -8 -28 -4 -33 9 -8 36 26 36 45 0 22 -20 14 -32
             -12z"/>
    <path d="M4587 3770 c-14 -11 -29 -29 -32 -40 -6 -18 -8 -19 -35 -5 -40 21
             -83 19 -114 -6 -35 -27 -36 -91 -3 -140 30 -45 128 -110 177 -116 38 -5 39 -5
             84 63 55 84 73 147 56 198 -21 64 -83 85 -133 46z m77 -52 c9 -12 16 -30 16
             -39 0 -24 -70 -160 -85 -165 -30 -12 -141 65 -161 111 -26 62 28 87 84 40 17
             -14 32 -25 36 -25 3 0 13 15 22 33 35 69 62 83 88 45z"/>
    <path d="M4372 2510 c-22 -36 -30 -110 -12 -110 6 0 10 17 10 38 0 21 7 48 16
             60 8 12 14 28 11 35 -2 6 -14 -4 -25 -23z"/>
    <path d="M3210 2508 c1 -7 7 -24 15 -38 8 -14 14 -35 15 -47 0 -13 5 -23 10
             -23 17 0 11 53 -10 88 -21 34 -30 40 -30 20z"/>
    <path d="M3288 2420 c2 -22 8 -40 14 -40 12 0 6 73 -7 77 -7 2 -9 -12 -7 -37z"/>
    <path d="M2174 3189 c-11 -6 -28 -23 -37 -39 -52 -87 22 -198 113 -171 48 14
             70 40 77 89 12 92 -73 159 -153 121z"/>
    <path d="M1302 3127 c-42 -24 -58 -65 -54 -133 1 -12 15 -36 31 -53 23 -25 37
             -31 69 -31 128 0 139 208 11 225 -19 3 -44 -1 -57 -8z"/>
    <path d="M1832 2960 c-15 -24 -58 -26 -83 -4 -10 9 -23 13 -28 9 -32 -19 16
             -65 67 -65 42 0 85 31 80 58 -5 23 -22 25 -36 2z"/>
    <path d="M3241 3094 c-51 -36 -62 -120 -22 -172 22 -29 91 -41 127 -21 68 36
             70 163 5 199 -29 15 -84 12 -110 -6z"/>
    <path d="M4152 3075 c-41 -18 -67 -73 -57 -123 18 -97 136 -126 186 -45 17 27
             20 45 16 80 -8 78 -75 119 -145 88z"/>
    <path d="M3792 2900 c-19 -31 -59 -36 -86 -11 -41 39 -65 16 -28 -27 40 -48
             152 -20 152 38 0 26 -22 26 -38 0z"/>
    <path d="M1818 2239 c-25 -14 -24 -65 2 -79 42 -23 82 29 53 69 -16 23 -29 26
             -55 10z m37 -39 c0 -7 -6 -15 -12 -17 -8 -3 -13 4 -13 17 0 13 5 20 13 18 6
             -3 12 -11 12 -18z"/>
    <path d="M1812 2078 c-7 -7 -12 -21 -12 -33 0 -12 5 -26 12 -33 7 -7 21 -12
             33 -12 29 0 45 19 45 51 0 37 -51 54 -78 27z m51 -25 c9 -9 -13 -34 -24 -27
             -14 8 -11 34 4 34 8 0 17 -3 20 -7z"/>
    <path d="M1822 1918 c-32 -32 8 -80 48 -58 24 13 27 55 4 64 -24 9 -39 7 -52
             -6z m38 -28 c0 -5 -4 -10 -10 -10 -5 0 -10 5 -10 10 0 6 5 10 10 10 6 0 10 -4
             10 -10z"/>
    <path d="M4220 1548 c-13 -5 -27 -14 -31 -20 -4 -7 -13 -7 -27 1 -32 17 -77
             13 -96 -8 -22 -24 -23 -83 -2 -115 21 -34 88 -95 109 -102 21 -7 62 27 108 90
             60 81 19 184 -61 154z m39 -52 c15 -18 -4 -66 -46 -115 l-29 -33 -31 26 c-54
             45 -78 126 -37 126 7 0 25 -12 39 -27 l25 -28 26 33 c28 36 36 38 53 18z"/>
    <path d="M1182 584 c3 -27 31 -54 44 -41 4 3 1 20 -6 37 -16 38 -43 41 -38 4z"/>
    <path d="M4394 597 c-9 -25 0 -62 16 -62 21 0 25 49 6 64 -13 11 -17 11 -22
             -2z"/>
    <path d="M4480 560 c-20 -20 -26 -41 -13 -53 8 -9 53 32 53 49 0 23 -19 25
             -40 4z"/>
    <path d="M1104 558 c-8 -13 30 -48 52 -48 22 0 17 27 -8 44 -27 19 -35 20 -44
             4z"/>
    <path d="M2390 535 c-7 -8 -9 -22 -6 -31 6 -15 8 -15 26 1 11 10 20 24 20 32
             0 18 -25 17 -40 -2z"/>
    <path d="M3218 534 c-12 -11 4 -34 24 -34 13 0 18 6 16 17 -3 18 -29 29 -40
             17z"/>
  </g>
</svg>
